Coordinates	
version=1	
nRows=32	
nColumns=21	
inDegrees=yes	
Units are S.I. units (second, meters, Newtons, ...)	
Angles are in degrees	

endheader	

time	Th_rotX	Th_rotY	Th_rotZ	Th_transX	Th_transY	Th_transZ	Clav_rotZ_right	Clav_rotY_right	Clav_rotX_right	Scap_rotZ_right	Scap_rotY_right	Scap_rotX_right	Hum_rotZ_right	Hum_rotY_right	Hum_rotZZ_right	Elb_flex_right	Elb_ProSup_right	wrist_dev_r	wrist_flex_r	
0.0000000000	-22.9183120487	-89.9543738355	-23.4912693551	-25.0000000000	-25.0000000000	-25.0000000000	28.6478897565	58.4947509952	-34.3774677078	57.2957795131	28.6478897565	-28.6478897565	-143.2394487827	-171.8873385392	28.6478897565	0.0000000000	143.2394487827	179.9087476711	-179.9087476711	179.9087476711	
0.0100000000	-22.4553158457	-88.1371137581	-23.0224856578	-24.4949494949	-24.4949494949	-24.4949494949	27.4325247366	57.2094006274	-33.1621026879	55.8489163941	27.4903992613	-27.4903992613	-141.5032130399	-168.4148670536	28.6478897565	1.8172600808	140.3457225398	176.2742275161	-176.2742275161	176.2742275161	
0.0200000000	-21.9923196427	-86.3198536806	-22.5537019605	-23.9898989899	-23.9898989899	-23.9898989899	26.2171597166	55.9240502596	-31.9467376679	54.4020532750	26.3329087661	-26.3329087661	-139.7669772971	-164.9423955680	28.6478897565	3.6345201616	137.4519962968	172.6397073611	-172.6397073611	172.6397073611	
0.0300000000	-21.5293234397	-84.5025936031	-22.0849182633	-23.4848484848	-23.4848484848	-23.4848484848	25.0017946966	54.6386998918	-30.7313726479	52.9551901560	25.1754182709	-25.1754182709	-138.0307415542	-161.4699240823	28.6478897565	5.4517802424	134.5582700538	169.0051872062	-169.0051872062	169.0051872062	
0.0400000000	-21.0663272367	-82.6853335256	-21.6161345660	-22.9797979798	-22.9797979798	-22.9797979798	23.7864296766	53.3533495240	-29.5160076280	51.5083270370	24.0179277757	-24.0179277757	-136.2945058114	-157.9974525967	28.6478897565	7.2690403232	131.6645438109	165.3706670512	-165.3706670512	165.3706670512	
0.0500000000	-20.6033310337	-80.8680734481	-21.1473508688	-22.4747474747	-22.4747474747	-22.4747474747	22.5710646567	52.0679991562	-28.3006426080	50.0614639180	22.8604372805	-22.8604372805	-134.5582700686	-154.5249811110	28.6478897565	9.0863004040	128.7708175679	161.7361468962	-161.7361468962	161.7361468962	
0.0600000000	-20.1403348307	-79.0508133706	-20.6785671715	-21.9696969697	-21.9696969697	-21.9696969697	21.3556996367	50.7826487885	-27.0852775880	48.6146007990	21.7029467853	-21.7029467853	-132.8220343258	-151.0525096254	28.6478897565	10.9035604848	125.8770913250	158.1016267413	-158.1016267413	158.1016267413	
0.0700000000	-19.6773386277	-77.2335532931	-20.2097834742	-21.4646464646	-21.4646464646	-21.4646464646	20.1403346167	49.4972984207	-25.8699125680	47.1677376800	20.5454562900	-20.5454562900	-131.0857985830	-147.5800381398	28.6478897565	12.7208205657	122.9833650820	154.4671065863	-154.4671065863	154.4671065863	
0.0800000000	-19.2143424247	-75.4162932157	-19.7409997770	-20.9595959596	-20.9595959596	-20.9595959596	18.9249695967	48.2119480529	-24.6545475481	45.7208745609	19.3879657948	-19.3879657948	-129.3495628401	-144.1075666541	28.6478897565	14.5380806465	120.0896388391	150.8325864313	-150.8325864313	150.8325864313	
0.0900000000	-18.7513462216	-73.5990331382	-19.2722160797	-20.4545454545	-20.4545454545	-20.4545454545	17.7096045768	46.9265976851	-23.4391825281	44.2740114419	18.2304752996	-18.2304752996	-127.6133270973	-140.6350951685	28.6478897565	16.3553407273	117.1959125961	147.1980662763	-147.1980662763	147.1980662763	
0.1000000000	-18.2883500186	-71.7817730607	-18.8034323824	-19.9494949495	-19.9494949495	-19.9494949495	16.4942395568	45.6412473173	-22.2238175081	42.8271483229	17.0729848044	-17.0729848044	-125.8770913545	-137.1626236828	28.6478897565	18.1726008081	114.3021863532	143.5635461214	-143.5635461214	143.5635461214	
0.1100000000	-17.8253538156	-69.9645129832	-18.3346486852	-19.4444444444	-19.4444444444	-19.4444444444	15.2788745368	44.3558969495	-21.0084524881	41.3802852039	15.9154943092	-15.9154943092	-124.1408556117	-133.6901521972	28.6478897565	19.9898608889	111.4084601102	139.9290259664	-139.9290259664	139.9290259664	
0.1200000000	-17.3623576126	-68.1472529057	-17.8658649879	-18.9393939394	-18.9393939394	-18.9393939394	14.0635095168	43.0705465817	-19.7930874682	39.9334220849	14.7580038140	-14.7580038140	-122.4046198689	-130.2176807116	28.6478897565	21.8071209697	108.5147338673	136.2945058114	-136.2945058114	136.2945058114	
0.1300000000	-16.8993614096	-66.3299928282	-17.3970812906	-18.4343434343	-18.4343434343	-18.4343434343	12.8481444969	41.7851962139	-18.5777224482	38.4865589659	13.6005133188	-13.6005133188	-120.6683841260	-126.7452092259	28.6478897565	23.6243810505	105.6210076243	132.6599856565	-132.6599856565	132.6599856565	
0.1400000000	-16.4363652066	-64.5127327507	-16.9282975934	-17.9292929293	-17.9292929293	-17.9292929293	11.6327794769	40.4998458462	-17.3623574282	37.0396958468	12.4430228235	-12.4430228235	-118.9321483832	-123.2727377403	28.6478897565	25.4416411313	102.7272813814	129.0254655015	-129.0254655015	129.0254655015	
0.1500000000	-15.9733690036	-62.6954726733	-16.4595138961	-17.4242424242	-17.4242424242	-17.4242424242	10.4174144569	39.2144954784	-16.1469924082	35.5928327278	11.2855323283	-11.2855323283	-117.1959126404	-119.8002662546	28.6478897565	27.2589012121	99.8335551384	125.3909453465	-125.3909453465	125.3909453465	
0.1600000000	-15.5103728006	-60.8782125958	-15.9907301988	-16.9191919192	-16.9191919192	-16.9191919192	9.2020494369	37.9291451106	-14.9316273883	34.1459696088	10.1280418331	-10.1280418331	-115.4596768976	-116.3277947690	28.6478897565	29.0761612929	96.9398288955	121.7564251915	-121.7564251915	121.7564251915	
0.1700000000	-15.0473765976	-59.0609525183	-15.5219465016	-16.4141414141	-16.4141414141	-16.4141414141	7.9866844170	36.6437947428	-13.7162623683	32.6991064898	8.9705513379	-8.9705513379	-113.7234411548	-112.8553232833	28.6478897565	30.8934213737	94.0461026525	118.1219050366	-118.1219050366	118.1219050366	
0.1800000000	-14.5843803946	-57.2436924408	-15.0531628043	-15.9090909091	-15.9090909091	-15.9090909091	6.7713193970	35.3584443750	-12.5008973483	31.2522433708	7.8130608427	-7.8130608427	-111.9872054119	-109.3828517977	28.6478897565	32.7106814545	91.1523764096	114.4873848816	-114.4873848816	114.4873848816	
0.1900000000	-14.1213841916	-55.4264323633	-14.5843791070	-15.4040404040	-15.4040404040	-15.4040404040	5.5559543770	34.0730940072	-11.2855323283	29.8053802518	6.6555703475	-6.6555703475	-110.2509696691	-105.9103803121	28.6478897565	34.5279415354	88.2586501666	110.8528647266	-110.8528647266	110.8528647266	
0.2000000000	-13.6583879886	-53.6091722858	-14.1155954098	-14.8989898990	-14.8989898990	-14.8989898990	4.3405893571	32.7877436394	-10.0701673084	28.3585171327	5.4980798523	-5.4980798523	-108.5147339263	-102.4379088264	28.6478897565	36.3452016162	85.3649239237	107.2183445717	-107.2183445717	107.2183445717	
0.2100000000	-13.1953917856	-51.7919122083	-13.6468117125	-14.3939393939	-14.3939393939	-14.3939393939	3.1252243371	31.5023932717	-8.8548022884	26.9116540137	4.3405893571	-4.3405893571	-106.7784981835	-98.9654373408	28.6478897565	38.1624616970	82.4711976807	103.5838244167	-103.5838244167	103.5838244167	
0.2200000000	-12.7323955826	-49.9746521309	-13.1780280152	-13.8888888889	-13.8888888889	-13.8888888889	1.9098593171	30.2170429039	-7.6394372684	25.4647908947	3.1830988618	-3.1830988618	-105.0422624407	-95.4929658551	28.6478897565	39.9797217778	79.5774714377	99.9493042617	-99.9493042617	99.9493042617	
0.2300000000	-12.2693993796	-48.1573920534	-12.7092443180	-13.3838383838	-13.3838383838	-13.3838383838	0.6944942971	28.9316925361	-6.4240722484	24.0179277757	2.0256083666	-2.0256083666	-103.3060266978	-92.0204943695	28.6478897565	41.7969818586	76.6837451948	96.3147841067	-96.3147841067	96.3147841067	
0.2400000000	-11.8064031766	-46.3401319759	-12.2404606207	-12.8787878788	-12.8787878788	-12.8787878788	-0.5208707228	27.6463421683	-5.2087072285	22.5710646567	0.8681178714	-0.8681178714	-101.5697909550	-88.5480228839	28.6478897565	43.6142419394	73.7900189518	92.6802639518	-92.6802639518	92.6802639518	
0.2500000000	-11.3434069736	-44.5228718984	-11.7716769234	-12.3737373737	-12.3737373737	-12.3737373737	-1.7362357428	26.3609918005	-3.9933422085	21.1242015377	-0.2893726238	0.2893726238	-99.8335552122	-85.0755513982	28.6478897565	45.4315020202	70.8962927089	89.0457437968	-89.0457437968	89.0457437968	
0.2600000000	-10.8804107706	-42.7056118209	-11.3028932262	-11.8686868687	-11.8686868687	-11.8686868687	-2.9516007628	25.0756414327	-2.7779771885	19.6773384186	-1.4468631190	1.4468631190	-98.0973194694	-81.6030799126	28.6478897565	47.2487621010	68.0025664659	85.4112236418	-85.4112236418	85.4112236418	
0.2700000000	-10.4174145676	-40.8883517434	-10.8341095289	-11.3636363636	-11.3636363636	-11.3636363636	-4.1669657828	23.7902910649	-1.5626121685	18.2304752996	-2.6043536142	2.6043536142	-96.3610837265	-78.1306084269	28.6478897565	49.0660221818	65.1088402230	81.7767034869	-81.7767034869	81.7767034869	
0.2800000000	-9.9544183646	-39.0710916659	-10.3653258316	-10.8585858586	-10.8585858586	-10.8585858586	-5.3823308027	22.5049406971	-0.3472471486	16.7836121806	-3.7618441094	3.7618441094	-94.6248479837	-74.6581369413	28.6478897565	50.8832822626	62.2151139800	78.1421833319	-78.1421833319	78.1421833319	
0.2900000000	-9.4914221616	-37.2538315885	-9.8965421344	-10.3535353535	-10.3535353535	-10.3535353535	-6.5976958227	21.2195903294	0.8681178714	15.3367490616	-4.9193346047	4.9193346047	-92.8886122409	-71.1856654556	28.6478897565	52.7005423434	59.3213877371	74.5076631769	-74.5076631769	74.5076631769	
0.3000000000	-9.0284259586	-35.4365715110	-9.4277584371	-9.8484848485	-9.8484848485	-9.8484848485	-7.8130608427	19.9342399616	2.0834828914	13.8898859426	-6.0768250999	6.0768250999	-91.1523764981	-67.7131939700	28.6478897565	54.5178024242	56.4276614941	70.8731430219	-70.8731430219	70.8731430219	
0.3100000000	-8.5654297556	-33.6193114335	-8.9589747398	-9.3434343434	-9.3434343434	-9.3434343434	-9.0284258627	18.6488895938	3.2988479114	12.4430228235	-7.2343155951	7.2343155951	-89.4161407553	-64.2407224844	28.6478897565	56.3350625051	53.5339352512	67.2386228670	-67.2386228670	67.2386228670	
